<?xml version="1.0" encoding="UTF-8"?>
<svg id="Layer_1" data-name="Layer 1" xmlns="http://www.w3.org/2000/svg" width="100" height="100" viewBox="0 0 100 100">
  <defs>
    <style>
      .cls-1 {
        fill: #3f3f3f;
      }

      .cls-1, .cls-2 {
        opacity: .41;
      }

      .cls-2 {
        fill: none;
        stroke: #fff;
        stroke-miterlimit: 10;
        stroke-width: .25px;
      }
    </style>
  </defs>
  <rect width="100" height="100"/>
  <path class="cls-1" d="M92.15,21.54v-4.33h5.84V2h-12.6v4.54h-17.11v3.7h-9.08V2h-24.5v6.34h-11.19v1.9h-12.25v-3.7h-6.76V2h-2.5v16.9h3.98v5.28h-3.98v17.11h10.31v4.86h-7.39v10.98h-2.92v16.9h2.5v12.67h-2.5v11.3h34.18v-3.49h7.5v-10.77h4.12v7.39h10.35v6.87h10.14v-3.49h7.18v3.49h22.53v-20.38h-3.73v-16.05h3.73v-4.44h-5.84v-4.01h5.84v-27.25h-3.73v6.76h-8.87v-11.09h6.76ZM18.02,30.73h3.8v3.8h-3.8v-3.8ZM24.78,64.31h-4.86v-7.18h4.86v7.18ZM41.25,85.11h-11.09v-11.09h11.09v11.09ZM50,28.7h-6.85v-6.85h6.85v6.85ZM74.2,64.31h-3.59v-3.59h3.59v3.59ZM74.2,46.14h-10.35v-10.35h10.35v10.35Z"/>
  <path class="cls-2" d="M92.15,21.54v-4.33h5.84V2h-12.6v4.54h-17.11v3.7h-9.08V2h-24.5v6.34h-11.19v1.9h-12.25v-3.7h-6.76V2h-2.5v16.9h3.98v5.28h-3.98v17.11h10.31v4.86h-7.39v10.98h-2.92v16.9h2.5v12.67h-2.5v11.3h34.18v-3.49h7.5v-10.77h4.12v7.39h10.35v6.87h10.14v-3.49h7.18v3.49h22.53v-20.38h-3.73v-16.05h3.73v-4.44h-5.84v-4.01h5.84v-27.25h-3.73v6.76h-8.87v-11.09h6.76ZM18.02,30.73h3.8v3.8h-3.8v-3.8ZM24.78,64.31h-4.86v-7.18h4.86v7.18ZM41.25,85.11h-11.09v-11.09h11.09v11.09ZM50,28.7h-6.85v-6.85h6.85v6.85ZM74.2,64.31h-3.59v-3.59h3.59v3.59ZM74.2,46.14h-10.35v-10.35h10.35v10.35Z"/>
</svg>