<?xml version="1.0" encoding="UTF-8"?>
<svg id="Layer_1" data-name="Layer 1" xmlns="http://www.w3.org/2000/svg" width="200" height="30" xmlns:xlink="http://www.w3.org/1999/xlink" viewBox="0 0 200 30">
  <defs>
    <style>
      .cls-1 {
        fill: #474444;
      }

      .cls-2 {
        fill: url(#linear-gradient);
      }

      .cls-3 {
        fill: #67c4f9;
      }
    </style>
    <linearGradient id="linear-gradient" x1="100" y1="1.01" x2="100" y2="28.99" gradientUnits="userSpaceOnUse">
      <stop offset=".11" stop-color="#fff"/>
      <stop offset=".18" stop-color="#e0eef7"/>
      <stop offset=".36" stop-color="#9dc8e5"/>
      <stop offset=".52" stop-color="#65a9d6"/>
      <stop offset=".67" stop-color="#3991cb"/>
      <stop offset=".81" stop-color="#1a7fc2"/>
      <stop offset=".92" stop-color="#0674bd"/>
      <stop offset="1" stop-color="#0071bc"/>
    </linearGradient>
  </defs>
  <g>
    <path class="cls-2" d="M194.17,28.99v-3c0-.77-.63-1.4-1.4-1.4h-6.86c-.77,0-1.4.63-1.4,1.4v2.6c0,.22-.18.4-.4.4h-1.32c-.22,0-.4-.18-.4-.4v-4.88c0-.77-.63-1.4-1.4-1.4h-7.29c-.77,0-1.4.63-1.4,1.4v1.52c0,.22-.18.4-.4.4h-4.4c-.77,0-1.4.63-1.4,1.4v1.56c0,.22-.18.4-.4.4h-8.53c-.22,0-.4-.18-.4-.4v-4.72c0-.77-.63-1.4-1.4-1.4h-17.21c-.77,0-1.4.63-1.4,1.4v4.72c0,.22-.18.4-.4.4h-2.02c-.22,0-.4-.18-.4-.4,0-.77-.63-1.4-1.4-1.4h-5.43c-.77,0-1.4.63-1.4,1.4,0,.22-.18.4-.4.4h-8.74c-.22,0-.4-.18-.4-.4v-3.85c0-.77-.63-1.4-1.4-1.4h-8.22c-.77,0-1.4.63-1.4,1.4v1.42c0,.22-.18.4-.4.4h-3.88c-.22,0-.4-.18-.4-.4v-.18c0-.77-.63-1.4-1.4-1.4h-9.87c-.77,0-1.4.63-1.4,1.4v2.6c0,.22-.18.4-.4.4h-3.57c-.22,0-.4-.18-.4-.4v-1.56c0-.77-.63-1.4-1.4-1.4h-7.91c-.77,0-1.4.63-1.4,1.4v1.56c0,.22-.18.4-.4.4h-2.75c-.22,0-.4-.18-.4-.4v-8.32c0-.77-.63-1.4-1.4-1.4h-11.01c-.77,0-1.4.63-1.4,1.4v3.92c0,.22-.18.4-.4.4h-6.05c-.77,0-1.4.63-1.4,1.4v2.6c0,.22-.18.4-.4.4h-14.3v-.52h-7.45c-.22,0-.4-.18-.4-.4v-.18c0-.77-.63-1.4-1.4-1.4h-7.7c-.22,0-.4-.18-.4-.4v-1.94c0-.77-.63-1.4-1.4-1.4h-4.6c-.77,0-1.4.63-1.4,1.4v4.44c0,.22-.18.4-.4.4h-2.48c-2.21,0-4-1.81-4-4.03V5.04C1.22,2.82,3.02,1.01,5.22,1.01h189.55c2.21,0,4,1.81,4,4.03v19.92c0,2.22-1.79,4.03-4,4.03h-.6Z"/>
    <path class="cls-1" d="M194.78,1.51c1.93,0,3.5,1.58,3.5,3.53v19.92c0,1.95-1.57,3.53-3.5,3.53h-.1v-2.5c0-1.05-.85-1.9-1.9-1.9h-6.86c-1.05,0-1.9.85-1.9,1.9v2.5h-1.12v-4.77c0-1.05-.85-1.9-1.9-1.9h-7.29c-1.05,0-1.9.85-1.9,1.9v1.42h-4.3c-1.05,0-1.9.85-1.9,1.9v1.46h-8.33v-4.62c0-1.05-.85-1.9-1.9-1.9h-17.2c-1.05,0-1.9.85-1.9,1.9v4.62h-1.82c-.05-1-.88-1.8-1.9-1.8h-5.43c-1.01,0-1.84.8-1.9,1.8h-8.54v-3.75c0-1.05-.85-1.9-1.9-1.9h-8.22c-1.05,0-1.9.85-1.9,1.9v1.32h-3.68v-.08c0-1.05-.85-1.9-1.9-1.9h-9.87c-1.05,0-1.9.85-1.9,1.9v2.5h-3.37v-1.46c0-1.05-.85-1.9-1.9-1.9h-7.91c-1.05,0-1.9.85-1.9,1.9v1.46h-2.54v-8.22c0-1.05-.85-1.9-1.9-1.9h-11.01c-1.05,0-1.9.85-1.9,1.9v3.82h-5.95c-1.05,0-1.9.85-1.9,1.9v2.5h-13.7v-.52h-7.85v-.08c0-1.05-.85-1.9-1.9-1.9h-7.6v-1.84c0-1.05-.85-1.9-1.9-1.9h-4.6c-1.05,0-1.9.85-1.9,1.9v4.34h-2.38c-1.93,0-3.5-1.58-3.5-3.53V5.04c0-1.95,1.57-3.53,3.5-3.53h189.55M194.78.51H5.22C2.74.51.72,2.54.72,5.04v19.92c0,2.5,2.02,4.53,4.5,4.53h2.48c.5,0,.9-.4.9-.9v-4.44c0-.5.4-.9.9-.9h4.6c.5,0,.9.4.9.9v1.94c0,.5.4.9.9.9h7.7c.5,0,.9.4.9.9v.18c0,.5.4.9.9.9h6.95v.52h14.8c.5,0,.9-.4.9-.9v-2.6c0-.5.4-.9.9-.9h6.05c.5,0,.9-.4.9-.9v-3.92c0-.5.4-.9.9-.9h11.01c.5,0,.9.4.9.9v8.32c0,.5.4.9.9.9h2.75c.5,0,.9-.4.9-.9v-1.56c0-.5.4-.9.9-.9h7.91c.5,0,.9.4.9.9v1.56c0,.5.4.9.9.9h3.57c.5,0,.9-.4.9-.9v-2.6c0-.5.4-.9.9-.9h9.87c.5,0,.9.4.9.9v.18c0,.5.4.9.9.9h3.88c.5,0,.9-.4.9-.9v-1.42c0-.5.4-.9.9-.9h8.22c.5,0,.9.4.9.9v3.85c0,.5.4.9.9.9h8.74c.5,0,.9-.4.9-.9s.4-.9.9-.9h5.43c.5,0,.9.4.9.9s.4.9.9.9h2.02c.5,0,.9-.4.9-.9v-4.72c0-.5.4-.9.9-.9h17.2c.5,0,.9.4.9.9v4.72c0,.5.4.9.9.9h8.53c.5,0,.9-.4.9-.9v-1.56c0-.5.4-.9.9-.9h4.4c.5,0,.9-.4.9-.9v-1.52c0-.5.4-.9.9-.9h7.29c.5,0,.9.4.9.9v4.87c0,.5.4.9.9.9h1.32c.5,0,.9-.4.9-.9v-2.6c0-.5.4-.9.9-.9h6.86c.5,0,.9.4.9.9v3.5h1.1c2.49,0,4.5-2.03,4.5-4.53V5.04c0-2.5-2.02-4.53-4.5-4.53h0Z"/>
  </g>
  <g>
    <circle class="cls-3" cx="4.87" cy="4.77" r="2.14"/>
    <path class="cls-1" d="M4.87,2.76c1.11,0,2.01.9,2.01,2.01s-.9,2.01-2.01,2.01-2.01-.9-2.01-2.01.9-2.01,2.01-2.01M4.87,2.51c-1.25,0-2.26,1.01-2.26,2.26s1.01,2.26,2.26,2.26,2.26-1.01,2.26-2.26-1.01-2.26-2.26-2.26h0Z"/>
  </g>
  <g>
    <circle class="cls-3" cx="195.18" cy="4.77" r="2.14"/>
    <path class="cls-1" d="M195.18,2.76c1.11,0,2.01.9,2.01,2.01s-.9,2.01-2.01,2.01-2.01-.9-2.01-2.01.9-2.01,2.01-2.01M195.18,2.51c-1.25,0-2.26,1.01-2.26,2.26s1.01,2.26,2.26,2.26,2.26-1.01,2.26-2.26-1.01-2.26-2.26-2.26h0Z"/>
  </g>
</svg>